<svg xmlns="http://www.w3.org/2000/svg" viewBox="0 0 800 600">
  <defs>
    <style>
      .background { fill: #E8F6F3; }
      .title { font: bold 48px sans-serif; fill: #16A085; }
      .subtitle { font: italic 24px serif; fill: #2C3E50; }
      .content { font: 18px sans-serif; fill: #34495E; }
      .highlight { font-weight: bold; fill: #E74C3C; }
      .story { font: 16px serif; fill: #2980B9; }
      .image { stroke: #7F8C8D; stroke-width: 2; fill: none; }
    </style>
  </defs>

  <!-- Background -->
  <rect class="background" width="100%" height="100%" />

  <!-- Title -->
  <text x="50" y="80" class="title">blueprint</text>
  <text x="50" y="120" class="subtitle">[ˈbluːˌprɪnt] n. 蓝图，设计图；计划</text>

  <!-- Etymology -->
  <text x="50" y="170" class="content">
    <tspan class="highlight">词根:</tspan> blue (蓝色) + print (印刷)
  </text>

  <!-- Story -->
  <text x="50" y="210" class="story">
    想象一个建筑师在一张巨大的蓝色纸上，"印刷(print)"
    <tspan x="50" dy="25">出建筑的详细设计图，这就是蓝图(blueprint)。</tspan>
  </text>

  <!-- Example -->
  <text x="50" y="280" class="content">
    <tspan class="highlight">例句:</tspan> The architect created a blueprint for the new skyscraper.
  </text>
  <text x="50" y="310" class="content">
    建筑师为新摩天大楼制作了蓝图。
  </text>

  <!-- Visual representation -->
  <g transform="translate(400,320)">
    <!-- Blueprint paper -->
    <rect x="0" y="0" width="350" height="200" class="image" fill="#ADD8E6" />
    <!-- Building outline -->
    <rect x="50" y="20" width="250" height="160" class="image" />
    <line x1="70" y1="50" x2="280" y2="50" class="image" />
    <line x1="70" y1="80" x2="250" y2="80" class="image" />
    <line x1="70" y1="110" x2="270" y2="110" class="image" />
    <line x1="70" y1="140" x2="240" y2="140" class="image" />
    <!-- Architect -->
    <circle cx="20" cy="100" r="15" class="image" />
    <line x1="20" y1="115" x2="20" y2="150" class="image" />
    <line x1="20" y1="150" x2="0" y2="180" class="image" />
    <line x1="20" y1="150" x2="40" y2="180" class="image" />
    <line x1="20" y1="130" x2="50" y2="120" class="image" />
  </g>
</svg>